<svg xmlns="http://www.w3.org/2000/svg" fill="none" viewBox="0 0 50 32">
  <g clip-path="url(#Iuzp_T3qija)">
    <path d="M25.375 1.698v6.934s4.696 2.62 7.018.489c2.322-2.132 2.083-5.074.896-5.604-1.187-.53-5.31-2.859-7.914-1.819z" fill="#E0390F"/>
    <path d="M.003 3.111c-.002-.713.423-1.375 1.122-1.515C5.916.636 13.459 4.411 18.47 6.092c2.976.977 6.46 1.913 9.126 1.736 1.306-.083 3.38-.582 4.148-1.736 1.037-1.674-.882-2.08-2.302-2.526-.975-.323-3.713-.655-4.045-1.747C25.065.728 27.036.177 28.021.062c3.025-.103 6.03.536 8.752 1.861 5.248 2.63 10.817 8.317 12.352 14.138.394 1.477.65 2.988.767 4.512a.22.22 0 01-.148.232.217.217 0 01-.257-.097 9.216 9.216 0 00-3.432-3.004 12.89 12.89 0 00-4.148-1.404 10.173 10.173 0 00-6.42.967c-2.51 1.539.218 4.71-.217 7.277-.654 3.12-4.77 4.876-7.477 5.729a40.61 40.61 0 01-14.975 1.507c-2.494-.152-8.957-1.078-11.989-2.657-.495-.258-.757-.792-.759-1.35L.003 3.11z" fill="#F15A34"/>
  </g>
  <defs>
    <clipPath id="Iuzp_T3qija">
      <path fill="#fff" d="M0 0h49.85v31.811H0z"/>
    </clipPath>
  </defs>
</svg>
