<svg xmlns="http://www.w3.org/2000/svg" fill="none" viewBox="0 0 1440 1079">
  <mask id="nPC5XE5o3a" style="mask-type:alpha" maskUnits="userSpaceOnUse" x="0" y="-1" width="1440" height="1080">
    <path fill="#FFEFE4" d="M0-1h1440v1080H0z"/>
  </mask>
  <g mask="url(#nPC5XE5o3a)">
    <g opacity=".4">
      <path d="M-407.768 543.753C-738.306 635.009-771.95 296.962-672.145 53.004c51.328-142.338-108.299-235.813-44.594-412.142 63.705-176.33 264.377 35.052 367.368-234.753 102.99-269.804 563.792-138.088 569.101 97.726 5.309 235.813 82.817 171.018 260.13 406.832 177.314 235.813-69.014 633.085-329.144 534.298-260.131-98.786-200.672.001-558.484 98.788z" stroke="url(#nPC5XE5o3b)"/>
      <path d="M-150.528 36.227c-31.482 10.53-82.27-38.788-60.595-78.445 19.848-36.314 6.461-73.293 15.31-97.724 23.295-64.318 35.626-40.66 63.292-69.411 33.667-34.987 121.824-51.682 121.824 28.751 0 66.153 32.116 46.36 46.346 95.896C49.88-35.17 25.657 21.007-38.116 21.007c-23.948 0-59.978-2.317-112.412 15.22z" stroke="url(#nPC5XE5o3c)"/>
      <path d="M-385.989 497.621C-689.34 581.538-724.543 269.739-631.841 44.355c48.467-132.7-97.866-221.039-39.147-383.56 60.031-166.146 243.581 28.17 339.724-219.721 96.688-248.458 523.613-130.233 528.44 91.455 4.826 220.39 78.207 159.685 240.695 378.565 162.488 218.879-63.649 585.143-305.928 495.336-238.659-89.806-187.882-.209-517.932 91.191z" stroke="url(#nPC5XE5o3d)"/>
      <path d="M-364.208 451.489c-276.164 76.578-312.925-208.972-227.326-415.784 45.605-123.061-87.433-206.265-33.702-354.976 56.358-155.964 222.786 21.287 312.081-204.69 90.386-227.111 483.435-122.379 487.778 85.184 4.344 204.967 73.599 148.353 221.261 350.298 147.662 201.945-58.283 537.2-282.712 456.374-217.188-80.825-175.091-.42-477.38 83.594z" stroke="url(#nPC5XE5o3e)"/>
      <path d="M-342.426 405.356c-248.977 69.24-287.297-190.062-208.8-378.301 42.743-113.423-77.001-191.49-28.256-326.393 52.684-145.781 201.99 14.404 284.438-189.659 84.084-205.764 443.255-114.523 447.116 78.914 3.861 189.543 68.99 137.02 201.826 322.031S300.98 401.205 94.402 329.36c-195.717-71.845-162.3-.631-436.828 75.996z" stroke="url(#nPC5XE5o3f)"/>
      <path d="M-320.643 359.223c-221.79 61.901-261.669-171.153-190.274-340.82 39.881-103.783-66.568-176.714-22.811-297.808 49.011-135.598 181.195 7.521 256.795-174.628 77.782-184.417 403.077-106.668 406.455 72.644 3.378 174.119 64.38 125.687 182.391 293.764 118.01 168.076-47.552 441.314-236.28 378.449-174.246-62.864-149.51-.841-396.276 68.399z" stroke="url(#nPC5XE5o3g)"/>
      <path d="M-297.757 313.086C-492.36 367.648-533.797 160.842-469.505 9.749c37.019-94.146-56.136-161.941-17.365-269.226 45.337-125.415 160.399.638 229.152-159.597 71.479-163.07 362.897-98.813 365.793 66.374 2.896 158.695 59.771 114.355 162.956 265.497C374.215 63.939 228.844 306.168 57.968 252.284c-152.775-53.884-136.72-1.053-355.725 60.802z" stroke="url(#nPC5XE5o3h)"/>
      <path d="M-273.563 266.952C-440.979 314.175-483.975 133.617-426.786 1.097c34.157-84.507-45.703-147.166-11.919-240.642 41.663-115.232 139.603-6.245 201.508-144.566 65.177-141.723 322.719-90.958 325.132 60.103 2.413 143.271 55.162 103.022 143.521 237.23C319.815 47.43 194.635 258.65 41.609 213.747c-131.304-44.903-123.93-1.263-315.172 53.205z" stroke="url(#nPC5XE5o3i)"/>
      <path d="M-249.299 220.817C-389.528 260.701-434.082 106.391-383.996-7.556c31.295-74.868-35.27-132.392-6.473-212.059 37.989-105.049 118.808-13.127 173.865-129.535 58.875-120.375 282.54-83.103 284.47 53.833 1.93 127.848 50.553 91.69 124.086 208.963C265.485 30.92 160.497 211.131 25.322 175.21c-109.833-35.923-111.14-1.474-274.621 45.608z" stroke="url(#nPC5XE5o3j)"/>
      <path d="M-224.93 174.68c-113.042 32.545-159.155-95.516-116.172-190.891 28.434-65.23-24.836-117.617-1.027-183.475 34.316-94.867 98.013-20.011 146.222-114.504 52.573-99.029 242.361-75.248 243.809 47.562 1.448 112.424 45.943 80.357 104.651 180.696C211.26 14.409 126.464 163.612 9.139 136.67c-88.362-26.942-98.35-1.685-234.069 38.011z" stroke="url(#nPC5XE5o3k)"/>
      <path d="M-200.406 128.539c-85.855 25.207-133.526-76.606-97.646-153.408 25.572-55.592-14.404-102.843 4.419-154.892 30.642-84.684 77.216-26.894 118.578-99.473 46.271-77.681 202.182-67.393 203.148 41.292.965 97.001 41.334 69.025 85.215 152.43C157.19-2.108 92.585 116.087-6.889 98.125c-66.89-17.96-85.56-1.895-193.517 30.414z" stroke="url(#nPC5XE5o3l)"/>
      <path d="M-175.648 82.392c-58.669 17.868-107.898-57.697-79.121-115.926 22.71-45.953-3.971-88.068 9.865-126.308 26.968-74.501 56.421-33.777 90.935-84.443C-114-300.619 8.034-303.822 8.517-209.263 9-127.686 45.242-151.571 74.297-85.1 103.355-18.63 58.94 68.556-22.682 59.575c-45.42-8.98-72.77-2.106-152.965 22.817z" stroke="url(#nPC5XE5o3m)"/>
    </g>
    <g opacity=".3">
      <path d="M1374.49 1546.75c-330.8 91.26-364.47-246.79-264.59-490.75 51.37-142.334-108.38-235.809-44.63-412.138 63.76-176.33 264.59 35.052 367.66-234.753 103.07-269.804 564.24-138.088 569.55 97.726 5.31 235.813 82.88 171.018 260.33 406.831 177.46 235.814-69.07 633.084-329.4 534.304-260.34-98.79-200.83 0-558.92 98.78z" stroke="url(#nPC5XE5o3n)"/>
      <path d="M1631.93 1039.23c-31.51 10.53-82.34-38.79-60.64-78.447 19.86-36.315 6.46-73.294 15.32-97.725 23.31-64.318 35.65-40.66 63.34-69.411 33.69-34.987 121.92-51.682 121.92 28.751 0 66.153 32.14 46.36 46.38 95.896 14.24 49.536-10 105.716-73.82 105.716-23.97 0-60.03-2.32-112.5 15.22z" stroke="url(#nPC5XE5o3o)"/>
      <path d="M1396.28 1500.62c-303.59 83.92-338.82-227.88-246.04-453.27 48.5-132.695-97.95-221.034-39.18-383.555 60.08-166.146 243.77 28.17 339.99-219.721 96.77-248.458 524.03-130.233 528.86 91.455 4.83 220.39 78.27 159.685 240.88 378.565 162.62 218.876-63.7 585.146-306.17 495.336-238.84-89.81-188.03-.21-518.34 91.19z" stroke="url(#nPC5XE5o3p)"/>
      <path d="M1418.08 1454.49c-276.38 76.58-313.17-208.97-227.5-415.79 45.64-123.056-87.51-206.26-33.73-354.971 56.4-155.964 222.96 21.287 312.32-204.69 90.46-227.111 483.82-122.379 488.17 85.184 4.34 204.967 73.65 148.353 221.43 350.298 147.78 201.949-58.33 537.199-282.93 456.379-217.36-80.83-175.23-.42-477.76 83.59z" stroke="url(#nPC5XE5o3q)"/>
      <path d="M1439.88 1408.36c-249.17 69.24-287.52-190.07-208.96-378.31 42.77-113.418-77.07-191.485-28.28-326.388 52.72-145.781 202.15 14.404 284.66-189.659 84.15-205.764 443.6-114.523 447.47 78.914 3.86 189.543 69.04 137.02 201.98 322.031 132.94 185.012-52.96 489.252-259.7 417.412-195.87-71.84-162.43-.63-437.17 76z" stroke="url(#nPC5XE5o3r)"/>
      <path d="M1461.68 1362.22c-221.96 61.9-261.87-171.15-190.42-340.82 39.91-103.78-66.62-176.711-22.83-297.805 49.05-135.598 181.34 7.521 256.99-174.628 77.85-184.417 403.4-106.668 406.78 72.644 3.38 174.119 64.43 125.687 182.53 293.764 118.11 168.075-47.59 441.315-236.46 378.445-174.38-62.86-149.63-.84-396.59 68.4z" stroke="url(#nPC5XE5o3s)"/>
      <path d="M1484.58 1316.09c-194.75 54.56-236.22-152.25-171.88-303.34 37.05-94.147-56.18-161.942-17.38-269.227 45.38-125.415 160.53.638 229.33-159.597 71.54-163.07 363.19-98.813 366.09 66.374 2.89 158.695 59.81 114.355 163.08 265.497 103.26 151.143-42.22 393.373-213.23 339.483-152.9-53.88-136.83-1.05-356.01 60.81z" stroke="url(#nPC5XE5o3t)"/>
      <path d="M1508.8 1269.95c-167.55 47.23-210.58-133.33-153.35-265.85 34.19-84.51-45.73-147.169-11.92-240.645 41.69-115.232 139.71-6.245 201.66-144.566 65.23-141.723 322.97-90.958 325.39 60.103 2.41 143.271 55.2 103.022 143.63 237.23 88.43 134.208-36.85 345.428-189.99 300.528-131.41-44.91-124.03-1.27-315.42 53.2z" stroke="url(#nPC5XE5o3u)"/>
      <path d="M1533.08 1223.82c-140.34 39.88-184.93-114.43-134.8-228.376 31.32-74.869-35.3-132.392-6.48-212.059 38.02-105.049 118.9-13.127 174-129.535 58.92-120.375 282.76-83.103 284.7 53.833 1.93 127.848 50.59 91.69 124.18 208.963 73.59 117.274-31.48 297.484-166.76 261.564-109.92-35.92-111.23-1.48-274.84 45.61z" stroke="url(#nPC5XE5o3v)"/>
      <path d="M1557.47 1177.68c-113.13 32.55-159.28-95.52-116.26-190.891 28.45-65.23-24.86-117.617-1.03-183.475 34.34-94.867 98.09-20.011 146.33-114.504 52.62-99.029 242.56-75.248 244.01 47.562 1.44 112.424 45.97 80.357 104.73 180.696 58.75 100.342-26.11 249.542-143.53 222.602-88.43-26.94-98.43-1.69-234.25 38.01z" stroke="url(#nPC5XE5o3w)"/>
      <path d="M1582.01 1131.54c-85.92 25.21-133.63-76.61-97.72-153.409 25.59-55.592-14.42-102.843 4.42-154.892 30.67-84.684 77.28-26.894 118.67-99.473 46.31-77.681 202.34-67.393 203.31 41.292.97 97.001 41.37 69.025 85.28 152.429 43.92 83.403-20.74 201.603-120.29 183.643-66.94-17.97-85.63-1.9-193.67 30.41z" stroke="url(#nPC5XE5o3x)"/>
      <path d="M1606.79 1085.39c-58.72 17.87-107.98-57.7-79.18-115.924 22.72-45.953-3.98-88.068 9.87-126.308 26.99-74.501 56.46-33.777 91.01-84.443 40-56.334 162.13-59.537 162.61 35.022.48 81.577 36.75 57.692 65.83 124.163 29.08 66.47-15.37 153.66-97.06 144.68-45.45-8.99-72.82-2.11-153.08 22.81z" stroke="url(#nPC5XE5o3y)"/>
    </g>
  </g>
  <defs>
    <linearGradient id="nPC5XE5o3b" x1="985.5" y1="706" x2="-20.813" y2="-15.563" gradientUnits="userSpaceOnUse">
      <stop stop-color="#185ADB"/>
      <stop offset="1" stop-color="#185ADB" stop-opacity="0"/>
    </linearGradient>
    <linearGradient id="nPC5XE5o3c" x1="985.5" y1="706" x2="-20.813" y2="-15.563" gradientUnits="userSpaceOnUse">
      <stop stop-color="#185ADB"/>
      <stop offset="1" stop-color="#185ADB" stop-opacity="0"/>
    </linearGradient>
    <linearGradient id="nPC5XE5o3d" x1="985.5" y1="706" x2="-20.813" y2="-15.563" gradientUnits="userSpaceOnUse">
      <stop stop-color="#185ADB"/>
      <stop offset="1" stop-color="#185ADB" stop-opacity="0"/>
    </linearGradient>
    <linearGradient id="nPC5XE5o3e" x1="985.5" y1="706" x2="-20.813" y2="-15.563" gradientUnits="userSpaceOnUse">
      <stop stop-color="#185ADB"/>
      <stop offset="1" stop-color="#185ADB" stop-opacity="0"/>
    </linearGradient>
    <linearGradient id="nPC5XE5o3f" x1="985.5" y1="706" x2="-20.813" y2="-15.563" gradientUnits="userSpaceOnUse">
      <stop stop-color="#185ADB"/>
      <stop offset="1" stop-color="#185ADB" stop-opacity="0"/>
    </linearGradient>
    <linearGradient id="nPC5XE5o3g" x1="985.5" y1="706" x2="-20.813" y2="-15.563" gradientUnits="userSpaceOnUse">
      <stop stop-color="#185ADB"/>
      <stop offset="1" stop-color="#185ADB" stop-opacity="0"/>
    </linearGradient>
    <linearGradient id="nPC5XE5o3h" x1="985.5" y1="706" x2="-20.813" y2="-15.563" gradientUnits="userSpaceOnUse">
      <stop stop-color="#185ADB"/>
      <stop offset="1" stop-color="#185ADB" stop-opacity="0"/>
    </linearGradient>
    <linearGradient id="nPC5XE5o3i" x1="985.5" y1="706" x2="-20.813" y2="-15.563" gradientUnits="userSpaceOnUse">
      <stop stop-color="#185ADB"/>
      <stop offset="1" stop-color="#185ADB" stop-opacity="0"/>
    </linearGradient>
    <linearGradient id="nPC5XE5o3j" x1="985.5" y1="706" x2="-20.813" y2="-15.563" gradientUnits="userSpaceOnUse">
      <stop stop-color="#185ADB"/>
      <stop offset="1" stop-color="#185ADB" stop-opacity="0"/>
    </linearGradient>
    <linearGradient id="nPC5XE5o3k" x1="985.5" y1="706" x2="-20.813" y2="-15.563" gradientUnits="userSpaceOnUse">
      <stop stop-color="#185ADB"/>
      <stop offset="1" stop-color="#185ADB" stop-opacity="0"/>
    </linearGradient>
    <linearGradient id="nPC5XE5o3l" x1="985.5" y1="706" x2="-20.813" y2="-15.563" gradientUnits="userSpaceOnUse">
      <stop stop-color="#185ADB"/>
      <stop offset="1" stop-color="#185ADB" stop-opacity="0"/>
    </linearGradient>
    <linearGradient id="nPC5XE5o3m" x1="985.5" y1="706" x2="-20.813" y2="-15.563" gradientUnits="userSpaceOnUse">
      <stop stop-color="#185ADB"/>
      <stop offset="1" stop-color="#185ADB" stop-opacity="0"/>
    </linearGradient>
    <linearGradient id="nPC5XE5o3n" x1="729" y1="383.5" x2="1604.31" y2="959.795" gradientUnits="userSpaceOnUse">
      <stop stop-color="#185ADB"/>
      <stop offset="1" stop-color="#185ADB" stop-opacity="0"/>
    </linearGradient>
    <linearGradient id="nPC5XE5o3o" x1="729" y1="383.5" x2="1604.31" y2="959.795" gradientUnits="userSpaceOnUse">
      <stop stop-color="#185ADB"/>
      <stop offset="1" stop-color="#185ADB" stop-opacity="0"/>
    </linearGradient>
    <linearGradient id="nPC5XE5o3p" x1="729" y1="383.5" x2="1604.31" y2="959.795" gradientUnits="userSpaceOnUse">
      <stop stop-color="#185ADB"/>
      <stop offset="1" stop-color="#185ADB" stop-opacity="0"/>
    </linearGradient>
    <linearGradient id="nPC5XE5o3q" x1="729" y1="383.5" x2="1604.31" y2="959.795" gradientUnits="userSpaceOnUse">
      <stop stop-color="#185ADB"/>
      <stop offset="1" stop-color="#185ADB" stop-opacity="0"/>
    </linearGradient>
    <linearGradient id="nPC5XE5o3r" x1="729" y1="383.5" x2="1604.31" y2="959.795" gradientUnits="userSpaceOnUse">
      <stop stop-color="#185ADB"/>
      <stop offset="1" stop-color="#185ADB" stop-opacity="0"/>
    </linearGradient>
    <linearGradient id="nPC5XE5o3s" x1="729" y1="383.5" x2="1604.31" y2="959.795" gradientUnits="userSpaceOnUse">
      <stop stop-color="#185ADB"/>
      <stop offset="1" stop-color="#185ADB" stop-opacity="0"/>
    </linearGradient>
    <linearGradient id="nPC5XE5o3t" x1="729" y1="383.5" x2="1604.31" y2="959.795" gradientUnits="userSpaceOnUse">
      <stop stop-color="#185ADB"/>
      <stop offset="1" stop-color="#185ADB" stop-opacity="0"/>
    </linearGradient>
    <linearGradient id="nPC5XE5o3u" x1="729" y1="383.5" x2="1604.31" y2="959.795" gradientUnits="userSpaceOnUse">
      <stop stop-color="#185ADB"/>
      <stop offset="1" stop-color="#185ADB" stop-opacity="0"/>
    </linearGradient>
    <linearGradient id="nPC5XE5o3v" x1="729" y1="383.5" x2="1604.31" y2="959.795" gradientUnits="userSpaceOnUse">
      <stop stop-color="#185ADB"/>
      <stop offset="1" stop-color="#185ADB" stop-opacity="0"/>
    </linearGradient>
    <linearGradient id="nPC5XE5o3w" x1="729" y1="383.5" x2="1604.31" y2="959.795" gradientUnits="userSpaceOnUse">
      <stop stop-color="#185ADB"/>
      <stop offset="1" stop-color="#185ADB" stop-opacity="0"/>
    </linearGradient>
    <linearGradient id="nPC5XE5o3x" x1="729" y1="383.5" x2="1604.31" y2="959.795" gradientUnits="userSpaceOnUse">
      <stop stop-color="#185ADB"/>
      <stop offset="1" stop-color="#185ADB" stop-opacity="0"/>
    </linearGradient>
    <linearGradient id="nPC5XE5o3y" x1="729" y1="383.5" x2="1604.31" y2="959.795" gradientUnits="userSpaceOnUse">
      <stop stop-color="#185ADB"/>
      <stop offset="1" stop-color="#185ADB" stop-opacity="0"/>
    </linearGradient>
  </defs>
</svg>
